<svg xmlns="http://www.w3.org/2000/svg" xmlns:xlink="http://www.w3.org/1999/xlink" viewBox="0 0 125.9011 145.3781">
  <defs>
    <clipPath id="clip-path" transform="translate(-16.8928 -1.1737)">
      <rect width="147.8978" height="147.8978" transform="translate(147.8978 0) rotate(90)" fill="none"/>
    </clipPath>
  </defs>
  <g id="Layer_2" data-name="Layer 2">
    <g id="Objects">
      <g clip-path="url(#clip-path)">
        <g>
          <path d="M84.7867,73.8627c-20.0584,9.617-4.899,23.3659-10.009,39.2692l25.7842-14.8865A25.74506,25.74506,0,0,1,106.9684,78.76a22.91362,22.91362,0,0,0,4.2126-23.149l-7.712-4.4525C103.3363,55.3896,101.2421,65.9732,84.7867,73.8627Z" transform="translate(-16.8928 -1.1737)" fill="#d54cc0"/>
          <path d="M106.9684,78.76a25.74506,25.74506,0,0,0-6.4065,19.4854l42.232-24.3827L111.181,55.611A22.91362,22.91362,0,0,1,106.9684,78.76Z" transform="translate(-16.8928 -1.1737)" fill="#fe56c7"/>
          <path d="M67.6565,62.6278c-21.4249,22.6911,5.8033,36.8439-1.9967,55.7683l9.1179-5.2642c5.11-15.9033-10.0494-29.6522,10.009-39.2692,16.4554-7.8895,18.5496-18.4731,18.6823-22.7042L76.8035,35.7632C77.4431,40.2642,77.8282,51.855,67.6565,62.6278Z" transform="translate(-16.8928 -1.1737)" fill="#a948b4"/>
          <path d="M45.4639,130.0562c2.0316-4.833,5.2761-17.0575-7.1407-28.4456C19.5858,84.4255,26.1155,59.8431,45.6656,50.7453c14.3811-6.6924,14.0818-19.9005,13.2832-25.2906L43.5807,16.582c.5432,2.9401,2.294,17.2033-12.2799,27.7051-9.2779,6.6855-12.9518,12.8535-14.408,16.6087v85.656Z" transform="translate(-16.8928 -1.1737)" fill="#49429f"/>
          <path d="M31.3008,44.2871C45.8747,33.7853,44.1239,19.5221,43.5807,16.582L16.8928,1.1737V60.8958C18.349,57.1406,22.0229,50.9726,31.3008,44.2871Z" transform="translate(-16.8928 -1.1737)" fill="#00488d"/>
          <path d="M45.6656,50.7453c-19.5501,9.0978-26.0798,33.6802-7.3424,50.8653,12.4168,11.3881,9.1723,23.6126,7.1407,28.4456l20.1959-11.6601c7.8-18.9244-19.4282-33.0772,1.9967-55.7683,10.1717-10.7728,9.7866-22.3636,9.147-26.8646L58.9488,25.4547C59.7474,30.8448,60.0467,44.0529,45.6656,50.7453Z" transform="translate(-16.8928 -1.1737)" fill="#7b43a6"/>
        </g>
      </g>
    </g>
  </g>
</svg>
